HIERARCHY
ROOT hip
{
	OFFSET 0.000000 0.000000 0.000000 
	CHANNELS 6 Xposition Yposition Zposition Xrotation Zrotation Yrotation
	JOINT abdomen
	{
		OFFSET 0.000000 3.402643 0.000000 
		CHANNELS 3 Xrotation Zrotation Yrotation
		JOINT chest
		{
			OFFSET 0.000000 8.438565 -0.680529 
			CHANNELS 3 Xrotation Zrotation Yrotation
			JOINT neck
			{
				OFFSET 0.000000 10.207942 -0.272212 
				CHANNELS 3 Xrotation Zrotation Yrotation
				JOINT head
				{
					OFFSET 0.000000 3.130431 0.000000 
					CHANNELS 3 Xrotation Zrotation Yrotation
					End Site
					{
						OFFSET 0.000000 3.130435 0.000000 
					}
				}
			}
			JOINT lCollar
			{
				OFFSET 3.470700 6.669187 -0.816635 
				CHANNELS 3 Yrotation Zrotation Xrotation
				JOINT lShldr
				{
					OFFSET 3.198488 0.000000 0.000000 
					CHANNELS 3 Zrotation Yrotation Xrotation
					JOINT lForeArm
					{
						OFFSET 10.139888 0.000000 0.000000 
						CHANNELS 3 Yrotation Zrotation Xrotation
						JOINT lHand
						{
							OFFSET 8.370511 0.000000 0.000000 
							CHANNELS 3 Zrotation Yrotation Xrotation
							End Site
							{
								OFFSET 4.083176 0.000000 0.000000 
							}
						}
					}
				}
			}
			JOINT rCollar
			{
				OFFSET -3.470700 6.669187 -0.816635 
				CHANNELS 3 Yrotation Zrotation Xrotation
				JOINT rShldr
				{
					OFFSET -3.198488 0.000000 0.000000 
					CHANNELS 3 Zrotation Yrotation Xrotation
					JOINT rForeArm
					{
						OFFSET -10.139888 0.000000 0.000000 
						CHANNELS 3 Yrotation Zrotation Xrotation
						JOINT rHand
						{
							OFFSET -8.370511 0.000000 0.000000 
							CHANNELS 3 Zrotation Yrotation Xrotation
							End Site
							{
								OFFSET -4.083176 0.000000 0.000000 
							}
						}
					}
				}
			}
		}
	}
	JOINT lThigh
	{
		OFFSET 5.308129 -1.633274 1.361059 
		CHANNELS 3 Xrotation Zrotation Yrotation
		JOINT lShin
		{
			OFFSET -2.041588 -20.007561 0.000000 
			CHANNELS 3 Xrotation Zrotation Yrotation
			JOINT lFoot
			{
				OFFSET 0.000000 -19.190928 -1.224953 
				CHANNELS 3 Xrotation Yrotation Zrotation
				End Site
				{
					OFFSET 0.000000 -2.449906 4.627600 
				}
			}
		}
	}
	JOINT rThigh
	{
		OFFSET -5.308129 -1.633274 1.361059 
		CHANNELS 3 Xrotation Zrotation Yrotation
		JOINT rShin
		{
			OFFSET 2.041588 -20.007561 0.000000 
			CHANNELS 3 Xrotation Zrotation Yrotation
			JOINT rFoot
			{
				OFFSET 0.000000 -19.190928 -1.224953 
				CHANNELS 3 Xrotation Yrotation Zrotation
				End Site
				{
					OFFSET 0.000000 -2.449906 4.627600 
				}
			}
		}
	}
}
MOTION
Frames: 18
Frame Time: 0.033000
3.417083 45.284283 6.088012 6.525727 -4.676670 45.998238 22.667681 -0.728295 -0.611012 -20.839844 0.000000 0.000000 7.227416 0.966178 -7.864014 -2.520832 -1.255077 0.218355 -4.754609 -0.109184 -0.002653 -79.060875 -4.145846 45.916500 -8.116799 -0.464634 -43.406639 -4.747636 -7.433001 0.263680 4.754609 0.109184 -0.002672 80.951508 3.950070 -3.362561 2.106886 -0.462091 18.449770 -0.175730 15.230746 0.196770 -11.309261 6.899035 -1.328982 15.956208 -3.252027 6.963891 -15.208257 0.338699 -2.699394 -25.688406 -12.361115 1.121943 32.849979 2.191489 -12.943512 0.002252 -0.815009 1.571032 
3.083007 44.627853 5.734161 8.164442 -7.415167 45.705616 22.911392 -0.642382 -0.589442 -20.839844 0.000000 0.000000 4.800711 1.342509 -7.316156 -2.520832 -1.255077 0.218355 -4.754609 -0.109184 -0.002653 -78.332077 -5.344633 46.178085 -10.586901 -0.455471 -44.765396 -2.526155 -11.212288 0.332332 4.754609 0.109184 -0.002672 80.395897 -3.524768 1.035929 18.881519 -0.410081 16.412962 -0.385864 11.623292 -0.037495 -19.858097 7.712605 -0.573066 24.921391 -2.740914 4.353866 -15.803493 0.248296 -2.289666 -35.863789 -11.600176 1.407766 36.340221 2.341922 -8.214321 -1.025265 -0.542364 2.943349 
2.751468 43.591167 5.348846 9.883742 -10.181916 44.943253 23.164982 -0.569150 -0.562005 -20.839844 0.000000 0.000000 1.398122 1.743830 -6.384185 -2.520832 -1.255077 0.218355 -4.754609 -0.109184 -0.002653 -77.208534 -6.728812 46.624947 -13.184319 -0.458232 -45.861301 1.367225 -15.596733 0.141666 4.754609 0.109184 -0.002672 78.343857 -7.979795 5.573265 31.009960 -0.334925 15.904750 -1.549387 10.122420 -0.150992 -29.865278 9.050181 0.193501 35.614120 -1.398418 1.284845 -16.008478 0.626007 -3.605944 -46.031017 -11.004887 1.860042 36.526295 2.532193 -3.942291 -2.115627 -0.588087 6.075171 
2.465144 41.965080 5.007172 11.584027 -12.655747 43.784313 23.428377 -0.496133 -0.534027 -20.839844 0.000000 0.000000 -2.124146 2.266361 -5.140174 -2.520832 -1.255077 0.218355 -4.754609 -0.109184 -0.002653 -75.511414 -8.188378 47.291054 -15.585508 -0.446557 -46.714466 6.051028 -18.721056 -0.390437 4.754609 0.109184 -0.002672 75.192558 -9.998802 8.891966 39.865318 -0.244831 16.297466 -2.917030 9.263944 -0.191565 -40.225044 10.925194 0.568612 47.323849 0.045476 -0.685511 -15.836599 1.296790 -5.972177 -54.806942 -10.643607 2.461148 33.662228 2.781970 -1.281714 -2.581910 -0.848484 9.957604 
2.264613 39.904415 4.785311 13.075790 -14.599328 42.616230 23.682068 -0.432372 -0.509218 -20.839844 0.000000 0.000000 -5.015832 2.881646 -3.970028 -2.520832 -1.255077 0.218355 -4.754609 -0.109184 -0.002653 -73.570824 -9.648428 48.202702 -17.225122 -0.450644 -47.346684 9.300617 -20.542185 -0.882406 4.754609 0.109184 -0.002672 71.794991 -10.589579 10.683660 46.941868 -0.170541 15.990362 -3.253761 7.614278 -0.241291 -50.106102 13.105434 0.297148 59.428070 0.894637 -1.540814 -15.489633 1.384573 -6.449875 -62.298512 -10.292075 2.884540 30.588722 3.031407 0.275391 -1.719942 -0.945600 12.374442 
2.205226 37.470615 4.780733 14.073065 -15.739355 41.800766 23.926075 -0.375827 -0.465517 -20.839844 0.000000 0.000000 -6.628259 3.466390 -3.108202 -2.520832 -1.255077 0.218355 -4.754609 -0.109184 -0.002653 -71.647881 -11.042593 49.441769 -17.506948 -0.434908 -47.763851 10.193746 -21.494953 -1.093313 4.754609 0.109184 -0.002672 68.947426 -9.893044 11.021749 51.437538 -0.103122 14.434456 -2.315081 5.417057 -0.280332 -58.900074 15.164368 -0.678390 71.538322 0.735318 -1.889638 -14.943530 0.978635 -5.211636 -69.085976 -9.911686 3.015791 30.433514 3.090195 0.891646 1.045232 -0.632365 12.690588 
2.318935 34.850475 5.033081 14.283059 -16.248575 41.412659 24.160337 -0.319541 -0.421209 -20.839844 0.000000 0.000000 -6.893769 4.052577 -2.644935 -2.520832 -1.255077 0.218355 -4.754609 -0.109184 -0.002653 -70.007652 -12.291179 51.088211 -16.202183 -0.444803 -47.974102 9.170605 -21.933014 -1.041405 4.754609 0.109184 -0.002672 66.989334 -8.347360 10.636554 53.171162 -0.041140 11.527164 -0.798266 2.848635 -0.322642 -66.338036 16.912098 -2.169134 83.201637 -0.067300 -2.533406 -14.231180 0.846043 -4.858553 -75.968040 -9.491522 2.896171 35.646709 2.825656 1.536956 4.566194 -0.125947 11.149109 
2.556056 32.213089 5.437683 13.935473 -16.376829 41.222599 24.365322 -0.263558 -0.376211 -20.839844 0.000000 0.000000 -6.409879 4.649375 -2.290983 -2.520832 -1.255077 0.218355 -4.754609 -0.109184 -0.002653 -68.573997 -13.275263 52.608002 -14.196754 -0.434843 -48.008015 7.499239 -22.123894 -0.864030 4.754609 0.109184 -0.002672 65.646782 -6.660460 10.264240 53.424793 0.015458 8.139842 0.454164 0.396620 -0.342336 -72.682289 18.300282 -3.994330 94.106560 -0.713697 -3.725507 -13.387970 1.016710 -5.734973 -82.727158 -9.101331 2.646797 44.835983 2.431475 2.533223 7.632114 0.071002 8.342912 
2.884002 29.648817 5.918945 13.240601 -16.212273 41.065197 24.550831 -0.220173 -0.325600 -20.839844 0.000000 0.000000 -5.598452 5.203627 -1.743981 -2.520832 -1.255077 0.218355 -4.754609 -0.109184 -0.002653 -67.313400 -13.845271 53.259159 -12.427583 -0.436579 -47.878605 6.053516 -22.196367 -0.650966 4.754609 0.109184 -0.002672 64.745689 -5.551853 10.358499 53.425377 0.066941 5.200376 0.890725 -1.333221 -0.336346 -77.968361 19.343893 -6.016627 103.698830 -0.718924 -5.294340 -12.520926 1.357432 -7.371719 -88.731277 -8.827629 2.222929 54.744465 2.042624 3.884932 9.382005 0.149810 6.585928 
3.270843 27.249020 6.402770 12.410902 -15.822640 40.774868 24.697289 -0.177018 -0.274480 -20.839844 0.000000 0.000000 -4.739843 5.677926 -0.878451 -2.520832 -1.255077 0.218355 -4.754609 -0.109184 -0.002653 -66.118858 -13.876678 52.646946 -11.725018 -0.439226 -47.627224 5.171967 -22.288692 -0.458984 4.754609 0.109184 -0.002672 64.120216 -5.213635 10.777511 54.289997 0.114105 3.148545 0.794300 -2.184738 -0.298670 -82.260551 20.018888 -8.132164 111.964958 0.152067 -6.824145 -11.658831 1.694834 -9.277490 -94.112106 -8.652298 1.801158 64.116051 1.582059 5.349123 9.432633 0.143509 5.418621 
3.685150 25.104073 6.812987 11.649303 -15.308829 40.165276 24.804701 -0.137520 -0.213833 -20.839844 0.000000 0.000000 -3.826675 5.998599 0.192780 -2.520832 -1.255077 0.218355 -4.754609 -0.109184 -0.002653 -64.928413 -13.283566 51.104980 -12.061797 -0.436544 -47.253654 4.785676 -22.539722 -0.357576 4.754609 0.109184 -0.002672 63.576618 -5.358260 11.375147 55.902222 0.159063 1.743411 0.509507 -2.430829 -0.248957 -85.597183 20.379776 -10.263012 118.998276 1.692533 -8.131370 -10.862862 2.003274 -10.943569 -98.916374 -8.544506 1.395144 72.408760 1.035776 6.835371 7.641922 0.018291 4.334649 
4.109558 23.331770 7.118620 11.057989 -14.666471 39.245674 24.873060 -0.107015 -0.157006 -20.839844 0.000000 0.000000 -2.686809 6.163771 1.292084 -2.520832 -1.255077 0.218355 -4.754609 -0.109184 -0.002653 -63.893032 -12.129536 49.130344 -13.186025 -0.437762 -46.773376 4.854218 -22.891665 -0.366873 4.754609 0.109184 -0.002672 63.155735 -5.563439 12.214766 57.663551 0.183417 0.560390 0.233871 -2.364269 -0.197337 -87.559593 20.370388 -12.364173 124.619286 3.412239 -9.241209 -10.164027 2.253989 -12.743194 -102.699829 -8.554468 0.975153 78.871979 0.684122 8.284083 5.876461 -0.063696 3.052966 
4.545662 21.850349 7.418669 10.374499 -13.880009 38.343174 24.941418 -0.076559 -0.100072 -20.839844 0.000000 0.000000 -1.196204 6.275738 2.287239 -2.520832 -1.255077 0.218355 -4.754609 -0.109184 -0.002653 -63.352428 -10.878428 47.561874 -14.133909 -0.428469 -46.200562 5.029390 -23.058176 -0.382764 4.754609 0.109184 -0.002672 63.085670 -5.573950 13.421773 58.700607 0.205278 -0.743104 -0.128717 -2.326286 -0.166680 -88.070686 20.058212 -14.501354 129.119919 4.873650 -10.541109 -9.437915 2.538788 -15.371056 -105.387947 -8.779088 0.377565 84.161369 0.391591 9.728461 4.508889 -0.118539 1.493632 
4.986326 20.638529 7.730345 9.479798 -12.903617 37.473297 24.990246 -0.049634 -0.033889 -20.839844 0.000000 0.000000 0.666215 6.328804 3.245396 -2.520832 -1.255077 0.218355 -4.754609 -0.109184 -0.002653 -63.335533 -9.563657 46.739033 -14.482880 -0.427393 -45.552658 5.115250 -22.961184 -0.404206 4.754609 0.109184 -0.002672 63.279694 -5.529696 14.881633 58.727669 0.222150 -2.086474 -0.539675 -2.317228 -0.146826 -87.417976 19.687336 -16.805748 132.663986 5.877957 -12.235879 -8.974547 2.798534 -18.268148 -107.152794 -9.111260 -0.309075 88.567734 0.166901 11.017003 3.397638 -0.142460 -0.390089 
5.423918 19.687645 8.067446 8.308743 -11.705484 36.671669 25.029295 -0.022745 0.032375 -20.839844 0.000000 0.000000 2.822201 6.278654 4.201056 -2.520832 -1.255077 0.218355 -4.754609 -0.109184 -0.002653 -63.798340 -8.191878 46.703190 -14.173159 -0.427082 -44.833183 5.003440 -22.512859 -0.441970 4.754609 0.109184 -0.002672 63.694752 -5.535790 16.520147 57.696678 0.252585 -3.374977 -0.960370 -2.347208 -0.128377 -85.896339 19.404121 -19.382772 135.125214 6.170023 -14.694762 -8.981473 3.184509 -21.527119 -108.152832 -9.492465 -1.117167 92.195541 -0.068491 11.890963 2.509377 -0.138437 -2.535033 
5.851895 18.989067 8.443148 7.051557 -10.468870 35.888531 25.058569 -0.004728 0.094549 -20.839844 0.000000 0.000000 4.908387 6.142401 5.173139 -2.520832 -1.255077 0.218355 -4.754609 -0.109184 -0.002653 -64.386833 -6.694464 46.889877 -13.846408 -0.430258 -44.065800 4.837404 -21.927603 -0.471836 4.754609 0.109184 -0.002672 64.238899 -5.751541 18.247475 56.382401 0.273000 -4.524230 -1.360723 -2.405763 -0.130484 -83.627808 19.385008 -21.806097 136.833801 6.040746 -17.626440 -9.668859 3.798074 -24.411913 -108.513741 -9.804969 -2.013369 95.205040 -0.245030 12.318586 1.775018 -0.092580 -4.539601 
6.261594 18.550442 8.868586 5.899214 -9.365093 35.099724 25.087818 0.009797 0.165886 -20.839844 0.000000 0.000000 6.561440 5.903168 6.176571 -2.520832 -1.255077 0.218355 -4.754609 -0.109184 -0.002653 -64.953972 -5.043417 46.907749 -13.957397 -0.425849 -43.279385 4.784749 -21.400606 -0.487002 4.754609 0.109184 -0.002672 64.875473 -6.289732 19.943863 55.321796 0.295381 -5.421587 -1.692714 -2.464319 -0.132591 -80.733292 19.580967 -23.593319 137.955307 5.590520 -20.803755 -11.255495 4.641089 -25.780628 -108.384949 -9.970349 -3.006567 97.670807 -0.399594 12.369458 1.185569 -0.015988 -6.049735 
6.646913 18.346857 9.316889 5.095850 -8.550558 34.279171 25.097530 0.027796 0.228099 -20.839844 0.000000 0.000000 7.427721 5.609301 7.146199 -2.520832 -1.255077 0.218355 -4.754609 -0.109184 -0.002653 -65.472015 -3.250802 46.554661 -14.610439 -0.431079 -42.482395 4.915577 -21.117292 -0.487986 4.754609 0.109184 -0.002672 65.493393 -6.990618 21.505716 54.800453 0.313120 -5.942795 -1.917024 -2.317578 -0.137075 -77.445168 19.922468 -24.580208 138.424393 4.832484 -23.996574 -12.758514 5.225044 -26.210596 -107.926048 -10.078027 -3.996631 99.562813 -0.526044 12.356820 0.610966 0.043668 -7.258156 
